<svg xmlns="http://www.w3.org/2000/svg" viewBox="0 0 64 64" role="img" aria-label="Steel plant icon">
  <rect width="64" height="64" rx="14" fill="#182029" />
  <circle cx="32" cy="32" r="28" fill="#25323b" />
  <path d="M12 49h40v5H12z" fill="#d8e0e5" />
  <path d="M15 27h7v22h-7zM25 20h10v29H25zM39 24h8v25h-8z" fill="#eef2f4" />
  <path d="M17 17h5v10h-5zM28 12h5v8h-5zM41 15h5v9h-5z" fill="#8fc3cf" />
  <path d="M11 26h42v3H11z" fill="#8fc3cf" />
  <path d="M46 26l7 7h-5l-7-7z" fill="#8fc3cf" />
  <path d="M49 33h4v8h-4z" fill="#d8e0e5" />
  <path d="M23 49c1-7 6-12 9-17 3 5 8 10 9 17z" fill="#ff8a22" />
  <path d="M28 49c.8-4 2.8-7 4-10 1.3 3 3.2 6 4 10z" fill="#ffd166" />
  <path d="M15 42h34" stroke="#ff8a22" stroke-width="3" stroke-linecap="round" opacity=".9" />
  <path d="M18 34h28" stroke="#182029" stroke-width="2" stroke-linecap="round" opacity=".35" />
</svg>
